# Blender v2.90.1 OBJ File: ''
# www.blender.org
mtllib ifstatementblock.mtl
o Cube_Cube.001
v -1.500000 -0.357980 -0.105999
v -1.500000 -0.357980 0.105999
v -1.500000 0.357980 0.105999
v -1.500000 0.357980 -0.105999
v 1.886419 0.357980 0.105999
v 1.886419 0.357980 -0.105999
v 1.886419 -0.357980 0.105999
v 1.886419 -0.357980 -0.105999
v 1.798852 -0.357980 0.105999
v 1.798852 -0.357980 -0.105999
v 1.798851 0.267608 -0.105999
v 1.082891 0.267608 -0.105999
v 1.082891 -0.357980 -0.105999
v 1.011295 -0.357980 -0.105999
v 1.011295 0.267608 -0.105999
v 0.295335 0.267608 -0.105999
v 0.295335 -0.357980 -0.105999
v 0.223739 -0.357980 -0.105999
v 0.223739 0.267608 -0.105999
v -0.492221 0.267608 -0.105999
v -0.492221 -0.357980 -0.105999
v -0.492221 -0.357980 0.105999
v -0.492221 0.267608 0.105999
v 0.223739 0.267608 0.105999
v 0.223739 -0.357980 0.105999
v 0.295335 -0.357980 0.105999
v 0.295335 0.267608 0.105999
v 1.011295 0.267608 0.105999
v 1.011295 -0.357980 0.105999
v 1.082891 -0.357980 0.105999
v 1.082891 0.267608 0.105999
v 1.798851 0.267608 0.105999
vt 0.375000 0.000000
vt 0.625000 0.000000
vt 0.625000 0.250000
vt 0.375000 0.250000
vt 0.625000 0.500000
vt 0.375000 0.500000
vt 0.625000 0.750000
vt 0.375000 0.750000
vt 0.625000 0.756465
vt 0.375000 0.756465
vt 0.125000 0.500000
vt 0.368535 0.750000
vt 0.368535 0.531556
vt 0.315680 0.531556
vt 0.315680 0.750000
vt 0.310395 0.750000
vt 0.310395 0.531556
vt 0.257539 0.531556
vt 0.257539 0.750000
vt 0.252254 0.750000
vt 0.252254 0.531556
vt 0.199399 0.531556
vt 0.199399 0.750000
vt 0.125000 0.750000
vt 0.875000 0.500000
vt 0.875000 0.750000
vt 0.800601 0.750000
vt 0.800601 0.531556
vt 0.747746 0.531556
vt 0.747746 0.750000
vt 0.742461 0.750000
vt 0.742461 0.531556
vt 0.689605 0.531556
vt 0.689605 0.750000
vt 0.684320 0.750000
vt 0.684320 0.531556
vt 0.631465 0.531556
vt 0.631465 0.750000
vt 0.385776 0.500000
vt 0.614224 0.500000
vt 0.614224 0.250000
vt 0.385776 0.250000
vt 0.385776 0.250000
vt 0.614224 0.250000
vt 0.614224 0.031556
vt 0.385776 0.031556
vt 0.385776 0.500000
vt 0.614224 0.500000
vt 0.614224 0.250000
vt 0.385776 0.250000
vt 0.614224 0.031556
vt 0.385776 0.031556
vt 0.385776 0.718444
vt 0.614224 0.718444
vt 0.614224 0.500000
vt 0.385776 0.500000
vt 0.385776 0.718444
vt 0.614224 0.718444
vt 0.375000 0.809320
vt 0.625000 0.809320
vt 0.625000 0.814605
vt 0.375000 0.814605
vt 0.375000 0.867461
vt 0.625000 0.867461
vt 0.625000 0.872746
vt 0.375000 0.872746
vt 0.375000 0.925601
vt 0.625000 0.925601
vt 0.625000 1.000000
vt 0.375000 1.000000
vt 0.385776 0.718444
vt 0.614224 0.718444
vt 0.614224 0.031556
vt 0.385776 0.031556
vn -1.0000 0.0000 0.0000
vn 0.0000 1.0000 0.0000
vn 1.0000 0.0000 0.0000
vn 0.0000 -1.0000 -0.0000
vn 0.0000 0.0000 -1.0000
vn 0.0000 -0.0000 1.0000
usemtl None
s 1
f 1/1/1 2/2/1 3/3/1 4/4/1
f 4/4/2 3/3/2 5/5/2 6/6/2
f 6/6/3 5/5/3 7/7/3 8/8/3
f 8/8/4 7/7/4 9/9/4 10/10/4
f 4/11/5 6/6/5 8/8/5 10/12/5 11/13/5 12/14/5 13/15/5 14/16/5 15/17/5 16/18/5 17/19/5 18/20/5 19/21/5 20/22/5 21/23/5 1/24/5
f 5/5/6 3/25/6 2/26/6 22/27/6 23/28/6 24/29/6 25/30/6 26/31/6 27/32/6 28/33/6 29/34/6 30/35/6 31/36/6 32/37/6 9/38/6 7/7/6
f 15/39/4 28/40/4 27/41/4 16/42/4
f 12/43/3 31/44/3 30/45/3 13/46/3
f 19/47/4 24/48/4 23/49/4 20/50/4
f 16/42/3 27/41/3 26/51/3 17/52/3
f 24/48/1 19/47/1 18/53/1 25/54/1
f 32/55/1 11/56/1 10/57/1 9/58/1
f 13/59/4 30/60/4 29/61/4 14/62/4
f 17/63/4 26/64/4 25/65/4 18/66/4
f 21/67/4 22/68/4 2/69/4 1/70/4
f 28/40/1 15/39/1 14/71/1 29/72/1
f 20/50/3 23/49/3 22/73/3 21/74/3
f 11/56/4 32/55/4 31/44/4 12/43/4
